<svg xmlns="http://www.w3.org/2000/svg" viewBox="0 0 334.38 238.87"><defs><style>.cls-1{fill:#fff;}.cls-2{fill:#0783c6;}.cls-3,.cls-4{fill:#d9a648;}.cls-4,.cls-5{fill-rule:evenodd;}.cls-5{fill:#ca4236;}</style></defs><g id="Layer_2" data-name="Layer 2"><g id="Comidas"><path class="cls-1" d="M172.54,0A119.44,119.44,0,1,0,292,119.44,119.43,119.43,0,0,0,172.54,0Zm87,97.62c.32,1.26.71,2.49,1,3.77.37,1.83.59,3.72.85,5.59.15,1.11.39,2.19.5,3.3a89.5,89.5,0,0,1,0,18.32c-.11,1.11-.35,2.19-.5,3.3-.26,1.87-.48,3.76-.85,5.59-.26,1.28-.65,2.51-1,3.77-.4,1.61-.75,3.24-1.23,4.81-.43,1.39-1,2.71-1.48,4.06s-1,2.81-1.53,4.17-1.32,2.77-2,4.16c-.59,1.22-1.12,2.48-1.76,3.66-.79,1.46-1.7,2.85-2.57,4.26-.64,1-1.22,2.11-1.9,3.12-1,1.48-2.1,2.86-3.18,4.28-.66.86-1.27,1.78-2,2.62-1.19,1.45-2.49,2.8-3.77,4.17-.67.72-1.29,1.49-2,2.18-1.38,1.39-2.86,2.67-4.32,4-.68.59-1.31,1.24-2,1.82-1.56,1.29-3.21,2.47-4.85,3.66-.68.49-1.32,1-2,1.5-1.7,1.16-3.49,2.2-5.28,3.24-.7.41-1.37.88-2.08,1.27-1.83,1-3.74,1.87-5.64,2.75-.73.33-1.43.73-2.17,1-1.91.82-3.9,1.51-5.89,2.19-.78.27-1.53.6-2.31.85-2,.62-4,1.11-6.05,1.59-.85.21-1.67.47-2.52.65-2,.42-4,.69-6.07,1-.95.13-1.87.33-2.82.43-2,.21-4,.26-6,.34-1,0-1.95.16-2.94.17v0c-.22,0-.43,0-.65,0a89.77,89.77,0,0,1,0-179.53c.22,0,.43,0,.65,0h0c.81,0,1.59.11,2.39.14,2.21.07,4.42.14,6.59.37.78.08,1.53.25,2.3.35,2.21.3,4.42.6,6.57,1.05.71.15,1.39.37,2.1.54,2.18.51,4.35,1,6.47,1.7.66.21,1.28.49,1.93.71,2.12.72,4.23,1.46,6.27,2.33.64.27,1.23.61,1.86.9,2,.91,4,1.84,5.94,2.89.63.35,1.22.76,1.84,1.12,1.87,1.08,3.73,2.17,5.52,3.38.63.44,1.22.93,1.84,1.38,1.7,1.23,3.41,2.45,5,3.79.65.54,1.24,1.14,1.87,1.7,1.52,1.33,3,2.65,4.47,4.08.66.67,1.26,1.41,1.91,2.1,1.3,1.4,2.63,2.78,3.84,4.26.68.82,1.26,1.7,1.91,2.55,1.09,1.43,2.22,2.84,3.23,4.34.67,1,1.24,2.06,1.87,3.08.88,1.43,1.8,2.82,2.6,4.3.64,1.18,1.17,2.43,1.75,3.64.68,1.4,1.41,2.76,2,4.19s1,2.78,1.53,4.17,1.05,2.67,1.48,4C258.78,94.38,259.13,96,259.53,97.62ZM257,119.44A84.45,84.45,0,1,1,172.54,35,84.45,84.45,0,0,1,257,119.44Zm77.38-93.26V223.52a11.27,11.27,0,0,1-7.84,11v0a9.72,9.72,0,0,1-2.65.41c-5.77,0-11.17-5.18-10.49-11.43,2-18.82,12.92-59.26,7.32-75.39-3.2-9.22-14.94-25.91-14.94-53.58,0-51.5,12.06-69.91,20.41-74.21.11-.05.23-.07.35-.12C330.21,18.64,334.38,21.65,334.38,26.18ZM38.13,20.89C40.6,36.81,43,66.66,43,82.13c0,19-3.87,18.77-15.13,23.27L32,224.07c0,6.29-4.72,11.44-10.49,11.44a9.56,9.56,0,0,1-1.52-.17v-.06c-5.05-.81-9-5.49-9-11.21L15.14,105.4C3.87,100.91,0,101.13,0,82.13,0,66.66,2.34,36.47,4.76,20.89H7.41L8,88h5.51l1.39-67.12h2.59L18.72,88h5.51l1.32-67.12h2.86L29.64,88h5.51l.48-67.12Z"/></g><g id="UERJ"><path class="cls-2" d="M148.85,88.1,145.63,84a2.1,2.1,0,0,1,.4-3.18,2.06,2.06,0,0,1,3.2.38l3.21,4.12-1.1.87-3.15-4c-.56-.72-1.06-.79-1.46-.47s-.43.9.07,1.54l3.15,4Z"/><path class="cls-2" d="M142.88,83.57l5.37,5L147,90,142,87.8h0l3.72,3.5-.9,1-5.37-5,1.26-1.35,5.18,2.36v0L142,84.52Z"/><path class="cls-2" d="M138.42,88.62l5.91,4.4-.84,1.12-5.91-4.4Z"/><path class="cls-2" d="M143.19,94.43l-.75,1.25-5.13-1.85h0l4,3.75-.71,1.19-5.42-5.3.84-1.41Z"/><path class="cls-2" d="M133.72,96.16l6.76,2.94L139,102.45l-1-.45.9-2.07-1.67-.72-.83,1.9-1-.45.83-1.9-2-.86-.93,2.13-1-.45Z"/><path class="cls-2" d="M131.33,102.37l.39-1.34,7.08,2-.71,2.49c-.27.92-1.08,1.32-2.29,1-.9-.25-1.49-.77-1.39-1.69h0a1.25,1.25,0,0,1-1.73.77,11,11,0,0,0-2.12-.44l.37-1.32a3.64,3.64,0,0,1,1.42.25c.84.24,1.54.52,1.84-.52l.1-.34Zm4,1.16-.17.6c-.15.53.39.85.84,1,.68.2,1,0,1.13-.42l.18-.59Z"/><path class="cls-2" d="M129.84,108.48c.25-1.72,1.4-1.88,2.66-1.62l-.2,1.39c-.7-.1-1.29-.16-1.4.6-.07.47.23.75.73.82,1.31.19,1.79-2.59,4-2.28,1.14.17,2,.8,1.73,2.49-.2,1.35-1,1.92-2.47,1.61l.19-1.35c.55.08,1.12.07,1.2-.49a.69.69,0,0,0-.68-.83c-1.38-.2-1.66,2.61-4,2.28C129.73,110.83,129.69,109.54,129.84,108.48Z"/><path class="cls-2" d="M129.56,112.32l7.36.32-.06,1.4-7.36-.32Z"/><path class="cls-2" d="M136.79,115l.15,2.33c.11,1.84-1.21,2.27-3.5,2.41-1.13.07-3.71.4-3.86-2l-.15-2.28Zm-6.14,1.79,0,.68c.05.85.76,1,2.61.86,1.35-.09,2.54-.16,2.48-1.14l0-.72Z"/><path class="cls-2" d="M129.87,121.33l7.6.26.39,1.81L131,126.72l-.31-1.44,1.52-.7-.4-1.87-1.68,0Zm6.39,1.39v0l-3.24,0,.28,1.31Z"/><path class="cls-2" d="M138.37,125.48l.83,2.19c.65,1.72-.49,2.52-2.64,3.33-1.06.4-3.42,1.47-4.27-.77l-.81-2.14ZM133,129l.24.64c.3.79,1,.7,2.74.05,1.27-.48,2.39-.91,2-1.82l-.25-.67Z"/><path class="cls-2" d="M133.87,133.94l6.47-3.52,1.75,3.21-1,.55-1.08-2-1.59.87,1,1.83-1,.54-1-1.83-1.89,1,1.11,2.05-1,.54Z"/><path class="cls-2" d="M144.71,137.38l1.58,1.72c1.24,1.36.47,2.52-1.22,4.07-.84.77-2.64,2.63-4.26.86l-1.54-1.68Zm-3.66,5.24.46.5c.58.63,1.21.28,2.57-1,1-.91,1.89-1.72,1.23-2.44l-.49-.53Z"/><path class="cls-2" d="M146,144.06c1.23-1.51,2.4-2.95,4.2-1.5s.62,2.9-.61,4.42-2.41,3-4.2,1.49S144.73,145.56,146,144.06Zm2.49,2c1.19-1.46,1.62-2.16,1-2.66s-1.21.07-2.4,1.54-1.62,2.16-1,2.66S147.24,147.55,148.44,146.08Z"/><path class="cls-2" d="M152.71,153.21l3.14-6.67,3.31,1.56-.48,1-2.05-1-.77,1.64,1.88.88-.48,1-1.88-.88-.92,1.94,2.11,1-.48,1Z"/><path class="cls-2" d="M159.24,156c-1.66-.53-1.62-1.69-1.16-2.89l1.33.43c-.21.67-.37,1.24.37,1.48.45.14.77-.11.92-.58.41-1.27-2.25-2.21-1.58-4.3.35-1.09,1.1-1.82,2.73-1.29,1.3.41,1.74,1.26,1.18,2.7l-1.3-.42c.17-.52.26-1.08-.28-1.25a.69.69,0,0,0-.93.52c-.42,1.33,2.3,2.08,1.59,4.29C161.53,156.54,160.25,156.37,159.24,156Z"/><path class="cls-2" d="M168.36,150.48l-.22,1.21-1.54-.28-1.1,6-1.38-.25,1.11-6-1.54-.28.22-1.2Z"/><path class="cls-2" d="M167.22,157.78l2.3-7.24,1.84.11,1.37,7.46-1.47-.08-.27-1.66-1.91-.11-.48,1.61Zm3.06-5.77h0l-.83,3.14,1.33.08Z"/><path class="cls-2" d="M173.52,150.72l2.33-.21c1.83-.15,2.29,1.16,2.49,3.45.1,1.12.48,3.69-1.91,3.9l-2.27.2Zm1.94,6.09.67-.06c.85-.07,1-.79.8-2.63-.12-1.35-.22-2.54-1.19-2.46l-.72.06Z"/><path class="cls-2" d="M179.58,153.8c-.45-1.9-.88-3.7,1.36-4.24s2.68,1.27,3.14,3.16.88,3.7-1.36,4.24S180,155.67,179.58,153.8Zm3.12-.75c-.44-1.83-.73-2.6-1.5-2.42s-.68,1-.24,2.84.73,2.6,1.5,2.42S183.14,154.89,182.7,153.05Z"/><path class="cls-2" d="M187.57,147.47l2.06-1.11c1.62-.87,2.56.15,3.65,2.17.53,1,1.9,3.21-.21,4.34l-2,1.08Zm4.19,4.82.6-.32c.75-.4.56-1.1-.31-2.73-.65-1.2-1.21-2.25-2.07-1.78l-.64.34Z"/><path class="cls-2" d="M194.36,147.89c-1.17-1.56-2.29-3-.44-4.43s3,.1,4.14,1.66,2.28,3,.43,4.44S195.51,149.44,194.36,147.89Zm2.56-1.92c-1.13-1.51-1.7-2.1-2.34-1.63s-.22,1.19.91,2.7,1.7,2.11,2.34,1.63S198.05,147.49,196.92,146Z"/><path class="cls-2" d="M205.77,142.48l-.88,1.09-5.73-4.63,1.62-2c.61-.74,1.51-.79,2.49,0,.73.59,1.07,1.29.62,2.1h0a1.25,1.25,0,0,1,1.89,0,12.31,12.31,0,0,0,1.78,1.24l-.86,1.06a3.5,3.5,0,0,1-1.2-.78c-.69-.55-1.22-1.08-1.9-.24l-.22.28Zm-3.26-2.63.4-.48c.35-.44,0-.94-.4-1.24-.54-.44-.92-.4-1.2,0l-.39.48Z"/><path class="cls-2" d="M208.35,139.05l-6.17-4,.76-1.17,6.17,4Z"/><path class="cls-2" d="M206.74,134.82c-1.74-.89-3.4-1.73-2.35-3.79s2.7-1.22,4.44-.33,3.39,1.72,2.35,3.78S208.46,135.69,206.74,134.82Zm1.45-2.86c-1.69-.85-2.46-1.13-2.82-.43s.33,1.17,2,2,2.46,1.14,2.82.43S209.87,132.82,208.19,132Z"/><path class="cls-2" d="M207.1,124.63l.49-2.29c.38-1.79,1.77-1.85,4-1.36,1.11.23,3.67.62,3.17,3l-.48,2.24Zm6.39-.06.14-.66c.18-.84-.47-1.15-2.28-1.54-1.33-.28-2.5-.53-2.7.42l-.15.71Z"/><path class="cls-2" d="M215.47,120l-7.35-.56.28-3.65,1.13.09-.17,2.25,1.81.14.16-2.08,1.13.09-.16,2.07,2.15.17.17-2.32,1.13.08Z"/><path class="cls-2" d="M207.68,107.7l5.59-.85a1.77,1.77,0,0,1,2.11,1.64c.29,1.93-.58,2.15-2.24,2.4l-.21-1.41c.58-.09,1.47-.1,1.36-.83a.6.6,0,0,0-.71-.43l-5.69.86Z"/><path class="cls-2" d="M214.75,105.33l-7.59.3-.52-1.77,6.55-3.83.42,1.42-1.46.81.54,1.84,1.67-.1Zm-6.47-.91v0l3.23-.29-.38-1.28Z"/><path class="cls-2" d="M212.65,98.68,206,101.84l-.81-1.71,3.85-3.8h0l-4.61,2.19-.56-1.19,6.65-3.16.8,1.67-4.09,4v0l4.87-2.31Z"/><path class="cls-2" d="M209.53,92.55l-6.14,4.07-2-3.05.95-.62,1.24,1.88,1.52-1-1.15-1.73.94-.63L206,93.19l1.8-1.19-1.29-1.94.94-.62Z"/><path class="cls-2" d="M206.6,88.36,200.87,93,200,91.9l5.73-4.63Z"/><path class="cls-2" d="M203.67,85l1,1-5.24,5.19-1.82-1.84c-.67-.68-.62-1.59.27-2.47a1.56,1.56,0,0,1,2.16-.39v0a1.24,1.24,0,0,1,.18-1.88,11.36,11.36,0,0,0,1.42-1.64l1,1A3.73,3.73,0,0,1,201.7,85c-.63.62-1.21,1.09-.45,1.85l.25.26Zm-3,3-.44-.44c-.39-.4-.94-.08-1.27.25-.5.5-.5.88-.18,1.19l.43.44Z"/><path class="cls-2" d="M198.25,84.86c-1.17,1.55-2.3,3-4.14,1.64s-.72-2.88.46-4.43,2.3-3,4.14-1.64S199.42,83.32,198.25,84.86Zm-2.55-1.93c-1.14,1.5-1.55,2.21-.92,2.69s1.2-.11,2.34-1.62,1.56-2.22.93-2.69S196.84,81.42,195.7,82.93Z"/><path class="cls-2" d="M154.78,130.05a2.79,2.79,0,0,0,.31,1.54,1.25,1.25,0,0,0,1.08.44,1.66,1.66,0,0,0,1.29-.44,2.11,2.11,0,0,0,.39-1.43v-4.3c0-.37,0-.6-.13-.68a.88.88,0,0,0-.59-.13h-.45v-1.33h4.1v1.33h-.41a1,1,0,0,0-.59.13,1,1,0,0,0-.13.64v4.58a2.72,2.72,0,0,1-1,2.31,4.8,4.8,0,0,1-3,.8,4.3,4.3,0,0,1-2.78-.79,2.64,2.64,0,0,1-1-2.2v-4.66a1.06,1.06,0,0,0-.13-.67.93.93,0,0,0-.61-.14h-.45v-1.33H156v1.33h-.49a.91.91,0,0,0-.61.14,1.06,1.06,0,0,0-.13.67Z"/><path class="cls-2" d="M171.87,123.72v3.54h-1.4a5.57,5.57,0,0,0-.29-1.08,2.09,2.09,0,0,0-.36-.63,1.38,1.38,0,0,0-.62-.38,4,4,0,0,0-1.16-.12h-1.41v2.61H167a1,1,0,0,0,.85-.31,1.84,1.84,0,0,0,.24-1.1v-.08h1.11v4.34h-1.11a2.5,2.5,0,0,0-.24-1.3,1,1,0,0,0-.83-.3h-.36v3h1.58a4.38,4.38,0,0,0,1.25-.12,1,1,0,0,0,.53-.4,2.81,2.81,0,0,0,.32-.82,6.36,6.36,0,0,0,.16-1.23h1.45v3.92h-9.34v-1.35H163a1,1,0,0,0,.57-.11c.1-.07.14-.29.14-.63v-5.26a1.11,1.11,0,0,0-.13-.69.92.92,0,0,0-.59-.13h-.44v-1.33Z"/><path class="cls-2" d="M175.46,131.05v-5.18a1.17,1.17,0,0,0-.12-.68,1,1,0,0,0-.6-.13h-.45v-1.34h6.09a4,4,0,0,1,2.41.59,2.06,2.06,0,0,1,.8,1.77,2,2,0,0,1-.49,1.35,2.63,2.63,0,0,1-1.39.75,1.6,1.6,0,0,1,1.22.59,4.44,4.44,0,0,1,.32,2.16,2.19,2.19,0,0,0,.08.71.28.28,0,0,0,.27.2c.12,0,.2-.08.26-.24a2.31,2.31,0,0,0,.09-.74,1.1,1.1,0,0,0,0-.16v-.17h.89c0,.05,0,.11,0,.2s0,.14,0,.19a3,3,0,0,1-.51,1.93,2,2,0,0,1-1.64.6,2.46,2.46,0,0,1-1.76-.54,2.36,2.36,0,0,1-.54-1.72v-.8a2,2,0,0,0-.24-1.21,1.36,1.36,0,0,0-1-.25h-.79v2.12a1.11,1.11,0,0,0,.13.69,1,1,0,0,0,.59.13h.5v1.35h-5.32v-1.35h.45a1,1,0,0,0,.59-.13A1.11,1.11,0,0,0,175.46,131.05Zm2.9-3.42h.78a1.76,1.76,0,0,0,1.14-.28,1.14,1.14,0,0,0,.33-.93,1.39,1.39,0,0,0-.3-1,1.59,1.59,0,0,0-1.08-.28h-.87Z"/><path class="cls-2" d="M190.48,125.87c0-.38,0-.6-.13-.69a.92.92,0,0,0-.59-.13h-.49v-1.33h5.27v1.33h-.41a1,1,0,0,0-.57.11c-.09.08-.13.29-.13.64V130a5.57,5.57,0,0,1-.18,1.61,2.17,2.17,0,0,1-.58.95,2.75,2.75,0,0,1-1.15.68,5.25,5.25,0,0,1-1.63.23,3.58,3.58,0,0,1-2.38-.76,2.37,2.37,0,0,1-.91-1.93,2.09,2.09,0,0,1,.49-1.45,1.58,1.58,0,0,1,1.27-.56,1.26,1.26,0,0,1,.93.35,1.37,1.37,0,0,1,.34,1,1.29,1.29,0,0,1-.31.91,1.05,1.05,0,0,1-.81.35h-.17l-.2,0a1.24,1.24,0,0,0,.43.52,1.13,1.13,0,0,0,.62.17,1.11,1.11,0,0,0,1-.43,3.4,3.4,0,0,0,.28-1.7Z"/><path class="cls-3" d="M162.42,105.06c-.4.46-1.34-.6-2.5,1.85-3.56.41-4,2.65-3.43,2.91.2.07.17,0,.17,0,.17-1.42,2.84-2.34,3.6-2.52,1-2.54,2-1.57,2.34-2.06.24-1.22.69-1.36.69-1.36S162.77,103.87,162.42,105.06Z"/><path class="cls-3" d="M188.92,109.93c0-1.39-2.48-1.92-3.14-2.1H172c-.72,0,.36,2.09.88,2.09Z"/><path class="cls-3" d="M188.65,110.52H156.82c-.79,0,.07.71,1,1.47a7.56,7.56,0,0,1,.8.7c1.52,1.7.48,5.08,6.17,6.83,0,0,.13.93.61.94h14.5c.57,0,.71-.94.71-.94,5.69-1.75,4.65-5.13,6.17-6.83a8.6,8.6,0,0,1,.79-.7C188.45,111.23,189.12,110.51,188.65,110.52Zm-17.24,8c-1.92.39-3.59,1.09-4.49,1.09-.68,0-1.16-.93-1.16-.93-5-1.55-5.09-4-5.61-5.52s-1.68-2-.31-2l14,0s3,.5,3.93,2.72C178.78,116.84,174.88,117.79,171.41,118.49Z"/><path class="cls-3" d="M171.73,103.74c-.32,0-.59.17-.52.85h-4.63c-.32,0-.3.51-.3.51H183.2c-.26-1.22-.74-1.36-.74-1.36Z"/><path class="cls-3" d="M171.88,105.66c-.57,0-.52.51-.5.89h-7.19c-.41,0-.36.58-.36.58h21.43a1.88,1.88,0,0,0-1.41-1.46Z"/><path class="cls-4" d="M179.6,121.47c0,.22-.12.41-.26.41H165.88c-.15,0-.26-.19-.26-.41h0c0-.23.11-.41.26-.41h13.46c.14,0,.26.18.26.41Z"/><path class="cls-3" d="M169.34,135.26h-1.17l1.39,12.39c.39.13.32.11.76.23Z"/><path class="cls-3" d="M170.32,135.26l.47,12.75a13.11,13.11,0,0,0,1.48.16l-.17-12.91Zm2.77,0-.16,12.84v.07a13,13,0,0,0,1.49-.14l.46-12.77Z"/><path class="cls-3" d="M177.05,135.28h-1.17L175,147.89a5.19,5.19,0,0,0,.73-.21Z"/><path class="cls-4" d="M171.08,160.84a3,3,0,0,0,1.5.23,3.36,3.36,0,0,0,1.55-.23l-.57,5.25a1,1,0,0,1-.95.84,1,1,0,0,1-.93-.84Z"/><path class="cls-5" d="M191,88.32c0,.32.07,5-6.81,4.55a6.53,6.53,0,0,0-.85-.1c12.66-8.36-.91-11.06-2.13-14.85-.12,1.63.55,2.15,1.18,3.62a4.2,4.2,0,0,1,.48,2.08s-6.77-4.59-5.67-8.9c.06-.26-2.53,1.78-2,5.39.44,2.88.65,7.52-7,8.51-4.18.55-15.51,3-14.83,8.82s12.41,5.14,12.41,5.14c3.23,0,1.84-2.66-.07-3.56-3.3-1.48-3.3-5.08,5-6.64-4.12,2.52-3.51,3.9-.4,5.52,3.52,1.8.35,4.67,1.87,4.67,1.19.05,3.27.06,4.37.06,1.91,0-7.15-4.24,2.25-9.59-4.45,6.26,1.31,9.1,2.21,9.14s-3-3.64,4.69-5.29C193.63,95.19,191,88.32,191,88.32Z"/><path class="cls-5" d="M160.32,85.74c-2.12,2.18-1.95,4-1.95,4A13.15,13.15,0,0,1,162,87.41c1.7-.59,4.33-.75,6.65-1.42a5.36,5.36,0,0,0,3.58-7.4c-1.29-3.12-3.23-4.24-2.7-6.64a5.08,5.08,0,0,0-2,3.92c-.16,2.24,1.41,3.76-.4,5.7C165.05,83.75,162.85,83.46,160.32,85.74Z"/><path class="cls-5" d="M156.78,88.73a8.41,8.41,0,0,1,5.6-7c5.8-2.35,1-9.07-2.71-8.35,1.83,1.26,4.14,4.34.89,6.34C153.92,83.79,156.78,88.73,156.78,88.73Z"/></g></g></svg>