<svg xmlns="http://www.w3.org/2000/svg" viewBox="0 0 937.01 758.41"><defs><style>.cls-1{fill:#fff;}.cls-2{fill:#ff6425;}</style></defs><g id="Camada_2" data-name="Camada 2"><g id="Camada_2-2" data-name="Camada 2"><path class="cls-1" d="M517,740.32,319.41,419.83c11.85-2.1,111.22-21.43,160.39-116.49,7.6-14.68,47.15-95.27,7.81-184.19C446.48,26.19,353.82,2.53,343.12,0H0V738.56l161.37-.88q-.45-143.11-.88-286.24l178.24,288ZM306.24,194.17c-.85,32-21.62,61.19-52.68,73.76l-91.32,1.75q.45-78.59.88-157.17H243C281.2,122.62,307.23,157,306.24,194.17Z"/><path class="cls-1" d="M430,0l-.49,27.71c9.31,7.56,88.17,74,85,184.12-3,101.72-73.57,161.51-84.24,170.24l-.15,167C469.42,669,550.72,748.34,626.14,747.84c54.14-.36,92.88-30.45,92.88-30.45,31.35-24.34,44.06-55.49,48.78-69.46q-.09-17.28-.19-34.54l-60.1.49A97.61,97.61,0,0,1,683,596.7a103.73,103.73,0,0,1-17.88-23.36c-23.26-41.26-27.61-87-27.61-87C632.92,438.56,629.28,252.83,634,0Z"/><path class="cls-1" d="M902.15,0H937l0,521.05c0,1.15,0,3.75,0,7-.83,59.21-22.63,93.08-28,119.86-.32,1.57-1.18,6.85-3,7-.32,0-1-.06-2.05-1.59a15,15,0,0,1-2.34-9.19c.75-10.37.81-48.34-2.82-65.41-1.74-8.25-6.15-20.12-18.69-33.22,0-1.6.05-3.2.07-4.8a80.9,80.9,0,0,0,12.08-16.81c8.69-16.14,9.65-31.41,10-38C903.47,461.72,903.88,266.75,902.15,0Z"/></g><g id="Camada_3" data-name="Camada 3"><path class="cls-2" d="M886.44,586.27c-3-8.09-16.07-44.08-50.73-56.59-5.53-2-37.93-13.68-54.36,4.76-13.52,15.18-6.08,39.43-5.35,41.68h0c8.85,43.13,6.6,78.6,5.85,85.47-6,54.38-111.9,83-108.48,92.87,4.28,12.34,182.11-.45,213.85-94.05C892.78,644,897.11,615.54,886.44,586.27Zm-35.9,62.83c-8.36,25-26.82,44.65-30.64,42.34-5.14-3.11,27.28-28.66,19.5-75.14-3.39-20.29-14.59-44.43-11.77-46s13.16,8.33,20,25.57C856.84,619.18,852.92,642,850.54,649.1Z"/></g></g></svg>