<svg xmlns="http://www.w3.org/2000/svg" viewBox="0 0 369.3 406.34"><defs><style>.cls-1,.cls-2{fill:#fff;}.cls-2{fill-rule:evenodd;}</style></defs><g id="Camada_2" data-name="Camada 2"><g id="Layer_1" data-name="Layer 1"><path class="cls-1" d="M83.06,69.08,69.31,51.45c-2.9-3.72-4-9.13,1.71-13.63,5.19-4,10-3,13.66,1.64L98.43,57.09,93.7,60.78,80.22,43.49c-2.39-3.06-4.52-3.34-6.24-2-2.07,1.62-1.82,3.86.32,6.62L87.79,65.39Z"/><path class="cls-1" d="M57.53,49.72l23,21.58L75,77.21,53.84,67.82l-.06.05L69.7,82.82,65.87,86.9l-23-21.58,5.41-5.76L70.45,69.64l.06-.06L53.7,53.8Z"/><path class="cls-1" d="M38.43,71.33,63.72,90.15,60.14,95,34.85,76.14Z"/><path class="cls-1" d="M58.84,96.18l-3.2,5.36-22-7.94,0,.06,17.12,16-3,5.08L24.55,92.12l3.6-6Z"/><path class="cls-1" d="M18.36,103.59l28.92,12.55-6.23,14.35-4.45-1.93,3.84-8.85-7.13-3.09-3.54,8.16-4.44-1.93,3.54-8.16L20.42,111l-4,9.14L12,118.23Z"/><path class="cls-1" d="M8.12,130.16l1.66-5.76,30.3,8.71L37,143.76c-1.13,3.93-4.63,5.65-9.79,4.17-3.86-1.11-6.36-3.32-6-7.25l-.08,0c-.53,1.21-1.94,4.86-7.4,3.29-1.93-.56-7.67-2.08-9.08-1.91l1.62-5.65c2.07-.23,4.08.51,6.05,1.08,3.61,1,6.59,2.22,7.86-2.2l.43-1.49Zm17.21,5-.74,2.56c-.66,2.29,1.68,3.66,3.61,4.21,2.89.84,4.3,0,4.83-1.79l.73-2.55Z"/><path class="cls-1" d="M1.73,156.3c1.06-7.35,6-8,11.37-6.94l-.86,5.93c-3-.43-5.5-.67-6,2.59-.29,2,1,3.19,3.11,3.5,5.62.81,7.69-11.08,17-9.74,4.89.71,8.47,3.39,7.42,10.62-.83,5.78-4.1,8.23-10.57,6.9l.83-5.78c2.34.34,4.77.33,5.11-2.07.28-1.92-.72-3.23-2.88-3.54-5.92-.86-7.13,11.16-16.94,9.74C1.25,166.34,1.07,160.82,1.73,156.3Z"/><path class="cls-1" d="M.53,172.72,32,174.07l-.26,6L.27,178.71Z"/><path class="cls-1" d="M31.46,184.19l.64,10c.5,7.85-5.16,9.68-15,10.3-4.83.31-15.86,1.69-16.51-8.53L0,186.19ZM5.22,191.86l.18,2.9c.23,3.64,3.29,4.16,11.17,3.66,5.8-.37,10.9-.69,10.64-4.85l-.2-3.09Z"/><path class="cls-1" d="M1.87,211.26l32.5,1.12L36,220.11,6.85,234.35l-1.33-6.17,6.49-3-1.72-8L3.12,217Zm27.32,5.93v-.07l-13.9.19,1.2,5.58Z"/><path class="cls-1" d="M38.24,229l3.54,9.36c2.78,7.35-2.09,10.76-11.28,14.24-4.53,1.72-14.66,6.27-18.29-3.3L8.75,240.2ZM15.41,244.09l1,2.71c1.3,3.42,4.37,3,11.76.22,5.43-2.06,10.21-3.86,8.73-7.76l-1.09-2.9Z"/><path class="cls-1" d="M19,265.22l27.7-15.05,7.47,13.74-4.26,2.32-4.61-8.48-6.83,3.71,4.25,7.82-4.26,2.31-4.24-7.81-8.1,4.4,4.76,8.75-4.26,2.31Z"/><path class="cls-1" d="M65.36,279.92l6.75,7.39c5.3,5.8,2,10.77-5.22,17.4C63.31,308,55.58,316,48.67,308.4l-6.59-7.2ZM49.71,302.35l1.95,2.14c2.47,2.69,5.17,1.19,11-4.14,4.28-3.92,8-7.37,5.24-10.45l-2.09-2.28Z"/><path class="cls-1" d="M70.66,308.52c5.27-6.47,10.28-12.64,18-6.4S91.27,314.52,86,321s-10.27,12.64-17.94,6.4S65.46,314.92,70.66,308.52Zm10.63,8.64c5.1-6.27,7-9.25,4.34-11.38s-5.16.3-10.25,6.57-7,9.26-4.35,11.38S76.2,323.43,81.29,317.16Z"/><path class="cls-1" d="M99.59,347.67,113,319.14l14.15,6.66-2.06,4.38-8.73-4.1-3.31,7,8,3.79-2.06,4.38-8-3.78-3.92,8.34,9,4.24L114,354.46Z"/><path class="cls-1" d="M127.5,359.78c-7.07-2.26-6.93-7.26-5-12.36l5.71,1.83c-.92,2.87-1.58,5.31,1.56,6.32,1.93.62,3.31-.45,4-2.49,1.74-5.41-9.65-9.42-6.79-18.36,1.51-4.7,4.75-7.79,11.71-5.56,5.55,1.78,7.43,5.41,5,11.57L138.18,339c.72-2.25,1.11-4.65-1.2-5.38-1.85-.6-3.31.17-4,2.25-1.83,5.7,9.83,8.88,6.8,18.32C137.32,361.92,131.85,361.18,127.5,359.78Z"/><path class="cls-1" d="M166.52,336l-.94,5.16-6.56-1.2L154.3,365.8l-5.89-1.07,4.71-25.86-6.56-1.2.95-5.16Z"/><path class="cls-1" d="M161.67,367.23l9.82-31,7.89.48,5.87,31.93-6.3-.37-1.16-7.07-8.17-.5-2,6.88Zm13.06-24.72h-.08l-3.55,13.44,5.71.34Z"/><path class="cls-1" d="M188.63,337l10-.87c7.83-.67,9.79,4.94,10.64,14.73.41,4.83,2,15.82-8.16,16.71l-9.73.84Zm8.27,26.06,2.89-.25c3.64-.31,4.09-3.37,3.41-11.25-.5-5.79-.94-10.88-5.09-10.52l-3.09.27Z"/><path class="cls-1" d="M214.55,350.18c-1.94-8.11-3.79-15.84,5.82-18.14s11.47,5.42,13.41,13.53,3.8,15.84-5.82,18.14S216.48,358.2,214.55,350.18ZM227.87,347c-1.88-7.86-3.12-11.15-6.4-10.37s-2.89,4.29-1,12.14,3.12,11.15,6.4,10.37S229.75,354.84,227.87,347Z"/><path class="cls-1" d="M248.73,323.08l8.8-4.74c6.93-3.73,11,.65,15.61,9.3,2.3,4.27,8.15,13.72-.87,18.57l-8.6,4.63Zm17.92,20.65,2.55-1.37c3.22-1.73,2.42-4.72-1.33-11.68-2.75-5.12-5.17-9.62-8.84-7.64l-2.73,1.47Z"/><path class="cls-1" d="M277.75,324.91c-5-6.68-9.76-13-1.84-19s12.67.44,17.67,7.12,9.76,13,1.84,19S282.7,331.52,277.75,324.91Zm11-8.21c-4.84-6.46-7.29-9-10-7s-1,5.08,3.88,11.55,7.29,9,10,7S293.56,323.17,288.72,316.7Z"/><path class="cls-1" d="M326.58,301.75l-3.76,4.67L298.3,286.6l7-8.62c2.57-3.18,6.46-3.4,10.64,0,3.12,2.53,4.56,5.53,2.66,9l.07.05c1-.9,3.68-3.71,8.09-.14,1.56,1.26,6.26,4.9,7.62,5.29l-3.69,4.57c-2-.59-3.56-2.06-5.15-3.35-2.92-2.36-5.2-4.61-8.1-1l-1,1.21ZM312.66,290.5l1.67-2.07c1.5-1.85-.11-4-1.68-5.29-2.34-1.89-3.95-1.71-5.15-.23L305.83,285Z"/><path class="cls-1" d="M337.61,287.09l-26.39-17.24,3.28-5,26.39,17.25Z"/><path class="cls-1" d="M330.73,269c-7.44-3.77-14.52-7.38-10.05-16.19s11.57-5.21,19-1.43,14.52,7.38,10,16.2S338.08,272.7,330.73,269Zm6.2-12.2c-7.2-3.66-10.51-4.86-12-1.85s1.39,5,8.59,8.64,10.51,4.85,12,1.85S344.13,260.42,336.93,256.76Z"/><path class="cls-1" d="M332.26,225.38l2.1-9.78c1.65-7.69,7.6-7.91,17.2-5.85,4.74,1,15.73,2.69,13.58,12.7L363.09,232Zm27.35-.26.61-2.83c.76-3.57-2-4.9-9.76-6.56-5.68-1.22-10.68-2.3-11.55,1.78l-.65,3Z"/><path class="cls-1" d="M368.09,205.45l-31.44-2.4,1.19-15.6,4.83.37-.73,9.62,7.75.6.68-8.87,4.83.37-.68,8.86,9.19.71.76-9.94,4.83.37Z"/><path class="cls-1" d="M334.76,152.94l23.91-3.64c5.44-.82,8.39,2.82,9,7,1.26,8.29-2.48,9.22-9.56,10.29l-.92-6c2.5-.38,6.29-.44,5.82-3.54a2.57,2.57,0,0,0-3-1.87l-24.35,3.71Z"/><path class="cls-1" d="M365,142.8l-32.48,1.31-2.24-7.58,28-16.39,1.78,6.06-6.25,3.5,2.32,7.84,7.16-.42Zm-27.68-3.88,0,.08,13.84-1.23-1.62-5.48Z"/><path class="cls-1" d="M356,114.36l-28.48,13.53-3.47-7.31,16.45-16.26,0-.07-19.72,9.37-2.4-5.06L346.83,95l3.4,7.14-17.47,17,0,.07,20.83-9.9Z"/><path class="cls-1" d="M342.66,88.12l-26.28,17.43-8.64-13,4-2.67,5.33,8,6.48-4.29-4.92-7.41,4-2.68,4.92,7.41,7.67-5.1-5.5-8.3,4-2.68Z"/><path class="cls-1" d="M330.13,70.21,305.61,90l-3.77-4.67,24.52-19.82Z"/><path class="cls-1" d="M317.61,55.81l4.22,4.26L299.44,82.26l-7.8-7.87c-2.88-2.9-2.67-6.79,1.14-10.57,2.85-2.83,6-3.93,9.23-1.66l.07-.07c-.8-1.05-3.29-4.06.74-8.05,1.43-1.42,5.56-5.68,6.1-7l4.14,4.17c-.81,1.92-2.44,3.31-3.9,4.76-2.66,2.64-5.15,4.66-1.91,7.93l1.09,1.1ZM304.9,68.41,303,66.52c-1.67-1.69-4-.32-5.44,1.09-2.14,2.12-2.13,3.74-.79,5.09l1.87,1.89Z"/><path class="cls-1" d="M294.43,55.23c-5,6.65-9.84,13-17.71,7s-3.08-12.3,2-19,9.84-13,17.72-7S299.42,48.66,294.43,55.23ZM283.52,47c-4.88,6.44-6.64,9.49-3.95,11.52s5.14-.48,10-6.91,6.65-9.49,4-11.53S288.4,40.52,283.52,47Z"/><path class="cls-1" d="M108.42,248.56c0,3.13.45,5.32,1.36,6.59s2.44,1.89,4.6,1.89q3.84,0,5.52-1.86t1.67-6.12V230.65c0-1.59-.18-2.57-.55-2.92a4,4,0,0,0-2.54-.53h-1.93v-5.71H134.1v5.71h-1.73a4,4,0,0,0-2.54.54c-.38.37-.57,1.28-.57,2.74v19.58q0,6.52-4.37,9.91t-12.83,3.39q-7.69,0-11.9-3.34c-2.81-2.23-4.21-5.39-4.21-9.45V230.65c0-1.53-.19-2.49-.58-2.88a3.93,3.93,0,0,0-2.58-.57H90.86v-5.71h22.83v5.71h-2.1a4,4,0,0,0-2.61.57c-.37.39-.56,1.35-.56,2.88Z"/><path class="cls-1" d="M181.56,221.49v15.14h-6a26.79,26.79,0,0,0-1.23-4.63,8.14,8.14,0,0,0-1.58-2.67,6,6,0,0,0-2.61-1.64,18,18,0,0,0-5-.49h-6v11.16h1.47q2.6,0,3.63-1.32c.69-.88,1-2.45,1-4.71V232H170v18.55h-4.72c-.07-2.85-.42-4.69-1-5.55s-1.81-1.27-3.57-1.27h-1.53v12.65h6.74a19.44,19.44,0,0,0,5.36-.49,4.37,4.37,0,0,0,2.28-1.72,12.62,12.62,0,0,0,1.39-3.53,28.78,28.78,0,0,0,.67-5.24h6.21v16.75h-40v-5.77h1.9a4.29,4.29,0,0,0,2.47-.47c.4-.31.6-1.21.6-2.71V230.69c0-1.59-.19-2.57-.56-2.94a3.89,3.89,0,0,0-2.56-.55h-1.85v-5.71Z"/><path class="cls-1" d="M196.93,252.84V230.69c0-1.57-.18-2.54-.55-2.9a3.93,3.93,0,0,0-2.57-.55h-1.9v-5.75H218q6.92,0,10.31,2.51c2.26,1.67,3.39,4.21,3.39,7.6a8.29,8.29,0,0,1-2.09,5.76,10.91,10.91,0,0,1-5.93,3.2q3.87.49,5.23,2.52c.91,1.35,1.37,4.45,1.37,9.28a9.06,9.06,0,0,0,.34,3,1.17,1.17,0,0,0,1.13.84c.51,0,.89-.35,1.14-1a10.19,10.19,0,0,0,.37-3.15c0-.13,0-.36,0-.68s0-.55,0-.72H237c0,.19,0,.46,0,.82s0,.64,0,.82q0,5.7-2.17,8.27t-7,2.57c-3.43,0-5.93-.78-7.5-2.32s-2.35-4-2.35-7.36V250q0-4.07-1-5.16c-.67-.74-2.07-1.11-4.19-1.11h-3.38v9.08c0,1.59.19,2.57.56,2.95a3.79,3.79,0,0,0,2.52.56h2.14v5.77H191.91v-5.77h1.9a3.87,3.87,0,0,0,2.56-.56C196.74,255.41,196.93,254.43,196.93,252.84Zm12.41-14.6h3.3q3.5,0,4.9-1.19a5,5,0,0,0,1.42-4c0-2.05-.44-3.48-1.31-4.3s-2.4-1.24-4.6-1.24h-3.71Z"/><path class="cls-1" d="M261.19,230.67c0-1.58-.19-2.56-.55-2.92a3.91,3.91,0,0,0-2.56-.55H256v-5.71h22.58v5.71H276.8a4.17,4.17,0,0,0-2.44.47c-.39.32-.58,1.22-.58,2.7v18.14a24.82,24.82,0,0,1-.74,6.9,9.61,9.61,0,0,1-2.48,4.08,12.35,12.35,0,0,1-4.94,2.91,22.68,22.68,0,0,1-7,1q-6.27,0-10.19-3.22a10.24,10.24,0,0,1-3.91-8.27,9.11,9.11,0,0,1,2.09-6.23,6.93,6.93,0,0,1,5.45-2.37,5.27,5.27,0,0,1,4,1.51,6.45,6.45,0,0,1,.14,8,4.42,4.42,0,0,1-3.46,1.49,6.59,6.59,0,0,1-.75-.05c-.25,0-.53-.07-.82-.13A5.17,5.17,0,0,0,253,256.3a4.8,4.8,0,0,0,2.67.74q3.11,0,4.32-1.82c.8-1.21,1.21-3.64,1.21-7.3Z"/><path class="cls-1" d="M141.14,141.65c-1.74,2-5.73-2.55-10.73,7.92-15.21,1.75-17,11.33-14.67,12.45.86.32.75.11.75.11.7-6.06,12.14-10,15.4-10.77,4.08-10.86,8.44-6.69,10-8.82,1-5.2,2.94-5.82,2.94-5.82S142.62,136.55,141.14,141.65Z"/><path class="cls-1" d="M254.49,162.48c-.12-5.94-10.59-8.19-13.41-9H182c-3.08,0,1.55,9,3.79,9Z"/><path class="cls-1" d="M253.35,165H117.16c-3.39-.1.3,3,4.17,6.29a37.09,37.09,0,0,1,3.4,3c6.51,7.28,2.06,21.72,26.39,29.22,0,0,.58,4,2.61,4s59.59,0,62,0,3-4,3-4c24.35-7.5,19.9-21.94,26.4-29.22a37.09,37.09,0,0,1,3.4-3C252.48,168,255.37,165,253.35,165Zm-73.76,34.13c-8.21,1.67-15.37,4.65-19.22,4.66-2.92,0-5-4-5-4-21.31-6.61-21.78-17.22-24-23.62s-7.19-8.75-1.36-8.75l60,.18s12.92,2.11,16.81,11.63C211.12,192,194.42,196.13,179.59,199.13Z"/><path class="cls-1" d="M180.94,136c-1.36,0-2.53.72-2.21,3.61l-19.83,0c-1.36,0-1.26,2.17-1.26,2.17H230c-1.09-5.21-3.17-5.79-3.17-5.79Z"/><path class="cls-1" d="M181.61,144.25c-2.46,0-2.25,2.14-2.13,3.8h-30.8c-1.74,0-1.51,2.48-1.51,2.48h91.67a8.1,8.1,0,0,0-6-6.28Z"/><path class="cls-2" d="M214.61,211.85c0,1-.49,1.76-1.1,1.76h-57.6c-.61,0-1.1-.79-1.1-1.76h0c0-1,.49-1.76,1.1-1.76h57.6c.61,0,1.1.79,1.1,1.76Z"/><path class="cls-1" d="M170.75,270.85h-5l5.92,53c1.67.57,1.38.47,3.28,1Z"/><path class="cls-1" d="M174.91,270.85l2,54.56a51.22,51.22,0,0,0,6.34.68l-.71-55.25Zm11.88,0-.7,54.94v.32a48.89,48.89,0,0,0,6.36-.62l2-54.63Z"/><path class="cls-1" d="M203.7,271c-2.19,0-2.8,0-5-.07l-4,54a20.37,20.37,0,0,0,3.15-.92Z"/><path class="cls-2" d="M178.19,380.29s1.43,1,6.42,1,6.62-1,6.62-1l-2.44,22.48s-.58,3.57-4.06,3.57-4-3.55-4-3.55Z"/><path class="cls-2" d="M263.33,70.05c.11,1.38.29,21.17-29.17,19.44a26.42,26.42,0,0,0-3.63-.39c54.19-35.77-3.88-47.34-9.1-63.54-.53,7,2.35,9.17,5,15.49,2.59,6.09,2.07,8.87,2.07,8.87s-29-19.65-24.28-38.07c.28-1.09-10.82,7.61-8.46,23.07,1.87,12.32,2.77,32.17-29.94,36.42C148,73.67,99.49,84,102.41,109.07s53.11,22,53.11,22c13.8,0,7.85-11.39-.31-15.24-14.12-6.34-14.13-21.73,21.31-28.42-17.64,10.8-15,16.69-1.74,23.62,15.06,7.72,1.49,20,8,20,5.08.21,14,.24,18.71.24,8.14-.13-30.61-18.13,9.59-41-19,26.8,5.64,39,9.47,39.11s-12.88-15.55,20.07-22.61C274.64,99.42,263.33,70.05,263.33,70.05Z"/><path class="cls-2" d="M132.15,59c-9.07,9.3-8.35,16.86-8.35,16.86s8-7.12,15.43-9.73c7.26-2.53,18.52-3.22,28.44-6.09,11.12-3.22,22.08-15.31,15.35-31.64C177.5,15.06,169.19,10.27,171.45,0c-5.47,4.2-8.13,9.66-8.63,16.78-.68,9.57,6,16.09-1.7,24.36C152.38,50.48,143,49.24,132.15,59Z"/><path class="cls-2" d="M117,71.78s.8-20.54,24-29.91c24.79-10,4.25-38.78-11.61-35.72,7.82,5.4,17.74,18.6,3.84,27.12C104.77,50.67,117,71.78,117,71.78Z"/></g></g></svg>